# xmcd
#
# Track frame offsets: 
#        150
#        13477
#        28045
#        42542
#        56940
#        72512
#        86795
#        100857
#        116975
#        130837
#        145142
#        160002
#        174792
#        188760
#        204397
#        217662
#        232235
#        245975
#        259545
#
# Disc length: 3643 seconds
#
# Revision: 0
# Processed by: cddbd v1.5.2PL0 Copyright (c) Steve Scherf et al.
# Submitted via: ExactAudioCopy v0.99pb5
#
DISCID=1d0e3913
DTITLE=Barbecue Bob - Complete Recorded Works, Vol. 3 (1929-1930)
DYEAR=1991
DGENRE=Blues
TTITLE0=She Moves It Just Right
TTITLE1=Tellin' It to You
TTITLE2=Yo Yo Blues No. 2
TTITLE3=She Shook Her Gin
TTITLE4=We Sure Got Hard Times
TTITLE5=Twistin' That Stuff
TTITLE6=Monkey and the Baboon
TTITLE7=Spider and the Fly
TTITLE8=Darktown Gambling, Pt. 1: The Crap Game
TTITLE9=Darktown Gambling, Pt. 2: The Skin Game
TTITLE10=Jambooger Blues
TTITLE11=It Just Won't Quit
TTITLE12=Atlanta Moan
TTITLE13=New Mojo Blues
TTITLE14=Doin' the Scraunch
TTITLE15=I'm on My Way Down Home
TTITLE16=Diddle-Da-Diddle
TTITLE17=She Looks So Good
TTITLE18=She's Coming Back Some Cold Rainy Day
EXTD=
EXTT0=
EXTT1=
EXTT2=
EXTT3=
EXTT4=
EXTT5=
EXTT6=
EXTT7=
EXTT8=
EXTT9=
EXTT10=
EXTT11=
EXTT12=
EXTT13=
EXTT14=
EXTT15=
EXTT16=
EXTT17=
EXTT18=
PLAYORDER=
